# xmcd
#
# Track frame offsets:
#	150
#	21413
#	43846
#	63804
#	84437
#	103540
#	124315
#	142165
#	163878
#	180168
#	201333
#	218388
#	238428
#	260141
#	275636
#	291836
#
# Disc length: 4189 seconds
# Revision: 0
# Processed by: cddbd v1.5.2PL0 Copyright (c) Steve Scherf et al.
# Submitted via: dBpowerAMP V12.0
#
DISCID=fa105b10
DTITLE=林志炫 - 精挑细选 - 林志炫
DYEAR=2013
DGENRE=Pop
TTITLE0=认错
TTITLE1=不知所错
TTITLE2=蒙娜丽莎的眼泪
TTITLE3=单身
TTITLE4=输了你赢了世界又如何
TTITLE5=散了吧
TTITLE6=Just For You
TTITLE7=相爱的最后一天
TTITLE8=现在我这么想
TTITLE9=懂事
TTITLE10=Miss Mama
TTITLE11=句点
TTITLE12=爱我
TTITLE13=黄丝带
TTITLE14=征服
TTITLE15=More Than Words
EXTD=
EXTT0=
EXTT1=
EXTT2=
EXTT3=
EXTT4=
EXTT5=
EXTT6=
EXTT7=
EXTT8=
EXTT9=
EXTT10=
EXTT11=
EXTT12=
EXTT13=
EXTT14=
EXTT15=
PLAYORDER=
